<?xml version="1.0"?>
<svg xmlns="http://www.w3.org/2000/svg" id="_x34_04" enable-background="new 0 0 300 300" height="512px" viewBox="0 0 300 300" width="512px" class=""><g><path d="m262 30h-224c-4.422 0-8 3.578-8 8v224c0 4.422 3.578 8 8 8h224c4.422 0 8-3.578 8-8v-224c0-4.422-3.578-8-8-8zm-8 16v32h-208v-32zm-208 208v-160h208v160z" data-original="#000000" class="active-path" data-old_color="#000000" fill="#9005D6"/><path d="m54 54h16v16h-16z" data-original="#000000" class="active-path" data-old_color="#000000" fill="#9005D6"/><path d="m78 54h16v16h-16z" data-original="#000000" class="active-path" data-old_color="#000000" fill="#9005D6"/><path d="m102 54h16v16h-16z" data-original="#000000" class="active-path" data-old_color="#000000" fill="#9005D6"/><g fill="#af16ef"><path d="m70 182c-4.422 0-8-3.578-8-8v-40c0-4.422 3.578-8 8-8s8 3.578 8 8v40c0 4.422-3.578 8-8 8z" data-original="#000000" class="active-path" data-old_color="#000000" fill="#9005D6"/><path d="m110 182h-40c-4.422 0-8-3.578-8-8s3.578-8 8-8h40c4.422 0 8 3.578 8 8s-3.578 8-8 8z" data-original="#000000" class="active-path" data-old_color="#000000" fill="#9005D6"/><path d="m110 222c-4.422 0-8-3.578-8-8v-80c0-4.422 3.578-8 8-8s8 3.578 8 8v80c0 4.422-3.578 8-8 8z" data-original="#000000" class="active-path" data-old_color="#000000" fill="#9005D6"/><path d="m190 182c-4.422 0-8-3.578-8-8v-40c0-4.422 3.578-8 8-8s8 3.578 8 8v40c0 4.422-3.578 8-8 8z" data-original="#000000" class="active-path" data-old_color="#000000" fill="#9005D6"/><path d="m230 182h-40c-4.422 0-8-3.578-8-8s3.578-8 8-8h40c4.422 0 8 3.578 8 8s-3.578 8-8 8z" data-original="#000000" class="active-path" data-old_color="#000000" fill="#9005D6"/><path d="m230 222c-4.422 0-8-3.578-8-8v-80c0-4.422 3.578-8 8-8s8 3.578 8 8v80c0 4.422-3.578 8-8 8z" data-original="#000000" class="active-path" data-old_color="#000000" fill="#9005D6"/><path d="m166 222h-32c-4.422 0-8-3.578-8-8v-80c0-4.422 3.578-8 8-8h32c4.422 0 8 3.578 8 8v80c0 4.422-3.578 8-8 8zm-24-16h16v-64h-16z" data-original="#000000" class="active-path" data-old_color="#000000" fill="#9005D6"/></g></g> </svg>
