<?xml version="1.0" standalone="no"?>
<!DOCTYPE svg PUBLIC "-//W3C//DTD SVG 20010904//EN"
 "http://www.w3.org/TR/2001/REC-SVG-20010904/DTD/svg10.dtd">
<svg version="1.0" xmlns="http://www.w3.org/2000/svg"
 width="300.000000pt" height="319.000000pt" viewBox="0 0 300.000000 319.000000"
 preserveAspectRatio="xMidYMid meet">
<metadata>
Created by potrace 1.10, written by Peter Selinger 2001-2011
</metadata>
<g transform="translate(0.000000,319.000000) scale(0.100000,-0.100000)"
fill="#ffffff" stroke="none">
<path d="M669 3151 l-29 -29 0 -150 c0 -147 1 -151 26 -181 16 -19 35 -31 50
-31 l24 0 0 160 0 160 763 -2 762 -3 3 -107 3 -108 -171 0 c-93 0 -170 -2
-170 -5 0 -4 130 -360 405 -1105 29 -80 51 -148 49 -151 -7 -12 -180 21 -269
52 -113 38 -219 94 -382 201 -343 225 -490 282 -789 308 -65 6 -119 12 -121
14 -3 2 205 575 242 669 7 16 -2 17 -99 17 l-106 0 0 -50 c0 -49 1 -50 30 -50
17 0 30 -5 30 -10 0 -6 -203 -563 -452 -1238 -494 -1343 -482 -1306 -438
-1396 27 -57 61 -82 137 -101 53 -13 222 -15 1359 -13 1226 3 1301 4 1339 21
89 40 134 119 122 215 -5 40 -62 202 -240 682 -19 52 -67 181 -105 285 -39
105 -87 235 -107 290 -42 113 -312 845 -403 1092 -32 89 -57 165 -54 168 3 3
54 5 114 5 108 0 110 0 139 29 l29 29 0 147 c0 81 -5 155 -10 166 -27 50 -11
49 -860 49 l-792 0 -29 -29z m662 -1425 c146 -44 255 -153 300 -297 63 -203
-38 -430 -232 -519 -268 -123 -570 38 -619 331 -35 203 99 416 300 480 67 22
188 24 251 5z m837 -433 c206 -65 271 -336 117 -486 -147 -142 -384 -98 -471
88 -52 109 -22 248 70 332 84 77 178 99 284 66z m-602 -648 c91 -27 154 -112
154 -210 0 -123 -97 -219 -221 -218 -92 1 -158 45 -198 133 -54 119 6 249 137
296 48 17 68 17 128 -1z"/>
</g>
</svg>
