<?xml version="1.0" standalone="no"?>
<!DOCTYPE svg PUBLIC "-//W3C//DTD SVG 20010904//EN"
 "http://www.w3.org/TR/2001/REC-SVG-20010904/DTD/svg10.dtd">
<svg version="1.0" xmlns="http://www.w3.org/2000/svg"
 width="1900.000000pt" height="1900.000000pt" viewBox="0 0 1500.000000 1500.000000"
 preserveAspectRatio="xMidYMid meet">
<metadata>
Created by potrace 1.10, written by Peter Selinger 2001-2011
</metadata>
<g transform="translate(0.000000,1500.000000) scale(0.100000,-0.100000)"
fill="#ffffff" stroke="none">
<path d="M1758 9829 c-27 -15 -25 -109 2 -134 19 -17 20 -31 20 -235 l0 -216
-34 -100 c-19 -54 -48 -137 -66 -184 -17 -47 -35 -96 -40 -110 -5 -14 -18 -50
-30 -80 -12 -30 -24 -66 -27 -80 -3 -14 -9 -29 -13 -35 -4 -5 -13 -26 -18 -45
-6 -19 -18 -53 -26 -75 -17 -45 -113 -316 -126 -355 -5 -14 -18 -50 -30 -80
-12 -30 -25 -66 -30 -80 -5 -14 -18 -50 -30 -80 -11 -30 -37 -100 -56 -155
-97 -272 -119 -333 -154 -425 -12 -30 -25 -68 -30 -85 -4 -16 -13 -43 -20 -60
-7 -16 -16 -39 -21 -50 -21 -51 -63 -178 -84 -256 -49 -181 -43 -254 24 -311
77 -66 24 -63 1211 -63 998 0 1079 1 1130 18 125 39 163 107 141 250 -11 69
-69 258 -136 437 -9 25 -21 61 -27 80 -5 19 -14 39 -19 44 -5 6 -9 19 -9 31 0
12 -5 26 -11 32 -6 6 -14 26 -19 44 -5 19 -18 59 -30 89 -27 72 -64 172 -105
290 -18 52 -47 133 -65 180 -17 47 -35 96 -40 110 -5 14 -18 50 -30 80 -12 30
-25 66 -30 80 -5 14 -29 84 -55 155 -26 72 -62 173 -80 225 -18 52 -47 133
-65 180 -17 47 -35 96 -40 110 -5 14 -18 50 -30 80 -69 176 -70 185 -70 409 0
195 1 210 21 234 16 21 19 38 17 84 l-3 58 -425 2 c-276 2 -431 -1 -442 -8z
m978 -1229 c24 -50 34 -76 43 -105 11 -35 95 -273 141 -395 17 -47 35 -96 40
-110 5 -14 18 -50 30 -80 23 -60 60 -163 120 -335 22 -60 48 -135 60 -165 12
-30 28 -73 36 -95 9 -22 19 -54 23 -70 4 -17 13 -39 18 -50 6 -11 23 -56 38
-100 100 -290 67 -403 -133 -451 -82 -19 -1847 -20 -1937 0 -78 17 -116 37
-149 81 -25 33 -27 43 -27 124 0 49 6 101 12 117 6 16 15 45 19 64 5 19 18 60
30 90 12 30 25 66 30 80 26 77 150 422 180 500 12 30 26 69 30 85 8 29 14 44
60 165 12 30 41 111 65 180 51 147 86 244 115 320 12 30 25 66 30 80 4 14 15
42 24 63 l16 37 537 -2 537 -3 12 -25z"/>
<path d="M2046 8288 c-21 -30 -20 -44 4 -68 25 -25 62 -26 83 -2 23 26 21 58
-5 76 -32 22 -64 20 -82 -6z"/>
<path d="M2339 8141 c-35 -35 -37 -60 -6 -89 32 -30 71 -28 96 4 29 37 26 58
-10 88 -39 33 -44 32 -80 -3z"/>
<path d="M2096 8008 c-23 -32 -20 -71 7 -96 29 -27 57 -28 85 -2 26 25 30 81
6 104 -24 24 -80 20 -98 -6z"/>
<path d="M2439 7817 c-46 -31 -61 -62 -56 -120 7 -80 74 -127 152 -106 92 26
112 158 34 224 -38 32 -85 33 -130 2z"/>
<path d="M1984 7725 c-47 -28 -68 -56 -79 -104 -28 -129 85 -241 205 -201 111
36 148 191 65 271 -62 61 -127 72 -191 34z"/>
<path d="M2343 7352 c-48 -20 -85 -52 -116 -102 -32 -52 -30 -160 6 -216 33
-53 66 -79 128 -99 47 -16 53 -16 102 2 114 40 173 144 148 258 -16 71 -71
134 -137 158 -59 21 -77 21 -131 -1z"/>
<path d="M3535 9671 c-13 -12 -2 -21 26 -21 22 0 41 -10 65 -34 l35 -35 -3
-416 -3 -417 -30 -24 c-16 -14 -42 -27 -57 -31 -75 -16 -5 -23 220 -23 312 0
399 14 517 84 100 60 152 127 195 252 28 80 28 258 0 338 -62 182 -176 280
-363 311 -77 13 -592 27 -602 16z m513 -67 c196 -49 311 -210 311 -434 0 -191
-87 -342 -237 -413 -61 -29 -76 -32 -162 -32 -64 0 -105 5 -125 15 l-30 15 -3
412 c-2 407 -2 412 18 423 56 30 143 35 228 14z"/>
<path d="M6061 9672 c-20 -7 0 -22 28 -22 17 0 38 -11 57 -31 l29 -30 0 -421
0 -420 -35 -29 c-19 -16 -44 -29 -57 -29 -12 0 -25 -4 -28 -10 -4 -7 63 -10
194 -10 127 0 201 4 201 10 0 6 -10 10 -21 10 -39 0 -88 39 -99 78 -7 22 -10
100 -8 187 l3 150 125 6 c130 6 182 19 244 62 69 46 106 122 106 216 0 124
-87 233 -211 265 -49 13 -498 28 -528 18z m419 -69 c128 -41 188 -210 121
-341 -35 -69 -95 -102 -186 -102 -99 0 -95 -9 -95 219 0 231 -1 228 96 240 7
0 35 -7 64 -16z"/>
<path d="M7810 9653 c-53 -20 -67 -83 -27 -121 42 -40 108 -18 122 40 6 22 1
33 -23 58 -30 30 -43 34 -72 23z"/>
<path d="M8974 9498 c-15 -31 -57 -82 -100 -124 -41 -39 -71 -74 -67 -78 3 -3
26 -6 50 -6 l43 0 0 -248 c0 -269 7 -317 55 -362 37 -35 104 -38 157 -7 50 29
92 82 84 104 -5 12 -11 10 -36 -10 -16 -14 -39 -28 -49 -32 -30 -9 -70 22 -76
58 -3 18 -5 136 -3 262 l3 230 69 5 c50 4 72 10 80 22 16 26 2 33 -77 38 l-72
5 -5 94 c-3 61 -9 96 -17 98 -7 3 -24 -20 -39 -49z"/>
<path d="M7791 9344 c-29 -13 -59 -24 -65 -24 -12 -1 -56 -35 -56 -44 0 -3 13
-6 28 -6 16 0 37 -6 48 -14 18 -14 19 -28 19 -266 l0 -252 -26 -21 c-14 -12
-35 -27 -45 -34 -15 -9 11 -12 134 -12 95 -1 152 3 152 9 0 6 -6 10 -13 10 -7
0 -25 11 -40 25 l-27 26 0 299 c0 164 -3 305 -6 314 -8 22 -40 19 -103 -10z"/>
<path d="M4880 9351 c-73 -17 -153 -79 -187 -144 -24 -46 -53 -165 -53 -217 0
-106 59 -244 127 -298 141 -111 316 -68 414 103 48 84 34 137 -17 62 -40 -59
-52 -69 -97 -89 -49 -22 -85 -23 -139 -2 -89 35 -160 135 -173 245 -5 42 -4
59 6 65 8 5 111 11 229 14 l215 5 3 37 c6 67 -48 151 -130 201 -31 19 -147 30
-198 18z m98 -63 c47 -23 97 -117 74 -140 -11 -11 -274 -14 -292 -3 -29 18 36
120 93 146 44 20 78 19 125 -3z"/>
<path d="M7155 9351 c-84 -22 -171 -99 -213 -189 -24 -51 -27 -68 -26 -167 0
-124 14 -167 78 -242 61 -70 117 -96 218 -101 76 -4 92 -1 141 21 71 33 129
92 168 175 29 62 31 75 31 167 -1 117 -17 164 -83 239 -57 65 -121 95 -211
101 -40 2 -86 1 -103 -4z m132 -61 c75 -45 119 -144 130 -287 11 -148 -24
-254 -94 -287 -89 -42 -175 0 -232 113 -24 48 -51 168 -51 229 0 57 32 167 58
198 43 54 132 69 189 34z"/>
<path d="M8205 9343 c-22 -8 -51 -18 -65 -23 -47 -16 -90 -42 -85 -51 4 -5 19
-9 35 -9 56 0 60 -19 60 -275 0 -254 -1 -259 -63 -293 -32 -17 -32 -17 108
-22 147 -5 175 -3 175 11 0 5 -8 9 -17 9 -10 1 -31 12 -48 25 l-30 25 -3 205
c-4 232 -4 232 70 285 34 25 51 30 98 30 48 0 60 -4 81 -26 l24 -26 0 -238 0
-238 -25 -21 c-14 -11 -33 -20 -42 -21 -10 0 -18 -4 -18 -10 0 -6 59 -10 158
-9 125 0 153 3 138 12 -10 7 -31 22 -45 34 l-26 21 -6 234 c-3 128 -11 249
-17 268 -28 86 -104 130 -196 114 -46 -7 -74 -23 -129 -72 -21 -18 -44 -31
-50 -29 -7 2 -13 24 -15 49 -2 26 -9 48 -15 51 -7 3 -31 -2 -52 -10z"/>
<path d="M5277 9343 c-13 -12 -7 -21 16 -27 55 -13 79 -59 249 -471 38 -93 74
-176 80 -182 23 -28 39 -11 78 82 7 17 43 107 81 200 38 94 73 179 78 190 5
11 17 40 27 65 25 64 51 98 86 116 19 10 27 19 21 25 -13 13 -209 7 -206 -6 1
-5 12 -12 25 -15 48 -12 45 -43 -26 -225 -76 -195 -97 -239 -111 -235 -18 6
-165 363 -165 401 0 26 21 51 53 62 10 4 15 11 12 17 -7 11 -287 14 -298 3z"/>
<path d="M3540 7560 c0 -5 18 -19 40 -30 21 -11 45 -30 52 -43 9 -16 14 -116
19 -367 6 -367 8 -378 59 -454 33 -48 111 -101 179 -120 109 -32 293 -16 370
32 42 25 101 85 118 117 40 76 45 122 50 450 5 355 4 350 73 385 22 11 40 25
40 30 0 12 -277 14 -284 1 -3 -4 13 -17 36 -27 66 -30 68 -41 68 -376 -1 -377
-13 -435 -105 -498 -53 -36 -152 -70 -207 -70 -53 0 -146 34 -179 66 -15 15
-38 49 -51 78 -22 50 -23 58 -23 386 0 184 3 346 7 360 4 14 25 36 47 49 22
14 38 29 35 33 -8 12 -344 10 -344 -2z"/>
<path d="M5517 7533 c-8 -10 -19 -30 -22 -45 -6 -22 -1 -33 23 -58 35 -34 58
-37 90 -11 28 25 31 90 4 114 -24 22 -75 22 -95 0z"/>
<path d="M8472 7527 c-31 -33 -29 -80 4 -106 32 -25 52 -26 82 -5 30 21 45 60
32 84 -29 54 -81 66 -118 27z"/>
<path d="M8910 7399 c-30 -62 -88 -130 -136 -159 -44 -28 -39 -44 17 -50 l44
-5 5 -275 c5 -254 7 -278 25 -310 29 -48 89 -70 142 -51 44 15 88 54 109 94
12 23 12 27 1 27 -8 0 -26 -9 -40 -20 -33 -26 -69 -25 -93 1 -18 20 -19 39
-19 278 l0 256 73 3 c69 3 72 4 72 27 0 27 -3 28 -67 25 -76 -3 -83 7 -83 115
0 111 -12 122 -50 44z"/>
<path d="M8490 7244 c-95 -36 -130 -55 -130 -71 0 -9 13 -13 40 -13 34 0 42
-4 50 -26 15 -39 13 -473 -3 -504 -7 -14 -27 -30 -45 -36 -66 -21 -36 -29 121
-32 135 -2 157 0 157 13 0 9 -9 15 -23 15 -13 0 -34 12 -48 26 l-24 26 -3 303
c-2 225 -6 306 -15 313 -9 8 -32 3 -77 -14z"/>
<path d="M5514 7236 c-129 -50 -154 -76 -74 -76 29 0 42 -5 50 -19 6 -12 10
-115 10 -264 0 -227 -1 -245 -19 -261 -10 -9 -30 -20 -45 -24 -14 -4 -27 -11
-28 -17 -2 -6 56 -11 155 -13 135 -2 157 0 157 13 0 9 -9 15 -23 15 -13 0 -33
10 -45 23 -21 22 -22 31 -24 332 l-3 310 -25 2 c-14 1 -52 -8 -86 -21z"/>
<path d="M4745 7235 c-16 -7 -52 -22 -80 -33 -58 -24 -70 -42 -27 -42 17 0 37
-7 45 -15 21 -21 29 -129 25 -332 -3 -164 -4 -172 -27 -197 -13 -14 -32 -26
-43 -28 -10 -2 -19 -7 -18 -13 0 -14 300 -19 313 -6 11 11 5 14 -45 25 -51 11
-58 43 -58 264 0 184 2 201 20 225 53 67 172 100 218 60 35 -32 42 -78 42
-293 0 -193 -1 -209 -20 -233 -11 -14 -33 -27 -48 -29 -15 -2 -26 -7 -25 -13
2 -6 65 -11 158 -13 133 -2 155 0 155 13 0 8 -8 15 -19 15 -10 0 -30 9 -44 20
l-25 20 -4 237 c-3 229 -4 240 -28 288 -33 67 -77 95 -147 95 -61 0 -107 -20
-172 -74 -24 -20 -47 -36 -52 -36 -5 0 -9 18 -9 39 0 73 -19 86 -85 56z"/>
<path d="M5789 7239 c-6 -3 10 -22 33 -41 48 -39 56 -53 122 -210 7 -18 18
-44 24 -58 6 -14 17 -41 26 -60 8 -19 33 -80 56 -135 55 -133 82 -188 98 -193
15 -5 46 62 159 343 110 274 107 269 156 315 22 22 37 40 32 41 -74 5 -197 4
-201 -2 -2 -5 9 -15 25 -23 16 -9 32 -24 36 -35 5 -16 -34 -129 -84 -246 -5
-11 -24 -56 -42 -100 -18 -44 -36 -84 -40 -89 -7 -8 -30 34 -60 109 -4 11 -20
49 -35 85 -88 213 -93 240 -44 268 16 9 28 21 27 26 -3 10 -273 15 -288 5z"/>
<path d="M6771 7235 c-103 -46 -174 -151 -190 -280 -10 -86 2 -190 29 -253 26
-58 92 -128 145 -153 57 -26 171 -26 223 1 68 35 142 129 157 197 10 49 -11
48 -45 -2 -46 -66 -93 -95 -158 -95 -58 0 -131 31 -169 72 -38 40 -75 138 -77
198 l-1 55 214 3 c138 1 219 6 228 13 41 34 -9 157 -88 215 -52 38 -56 39
-144 42 -64 1 -100 -2 -124 -13z m150 -59 c46 -32 78 -105 60 -135 -10 -16
-278 -18 -294 -2 -26 26 61 144 113 154 36 7 100 -2 121 -17z"/>
<path d="M7315 7221 c-38 -16 -78 -31 -87 -35 -29 -9 -21 -26 12 -26 17 0 39
-9 50 -20 19 -19 20 -33 20 -263 0 -240 0 -244 -22 -264 -13 -12 -33 -23 -46
-25 -12 -1 -23 -7 -22 -13 0 -6 60 -10 160 -10 100 0 160 4 160 10 1 6 -8 11
-18 13 -10 2 -33 16 -50 32 l-32 29 0 201 0 201 30 45 c45 64 57 68 114 33 50
-32 72 -32 101 1 24 27 22 66 -5 96 -19 19 -34 24 -70 24 -44 0 -52 -4 -106
-55 -53 -51 -59 -54 -66 -35 -4 11 -5 26 -2 34 8 21 -14 56 -34 56 -9 0 -48
-14 -87 -29z"/>
<path d="M7878 7230 c-20 -11 -50 -36 -65 -57 -24 -31 -28 -46 -28 -97 0 -73
18 -107 81 -153 24 -18 45 -33 48 -33 15 0 164 -95 183 -117 26 -30 37 -72 28
-111 -16 -73 -133 -97 -210 -44 -46 32 -94 97 -95 129 0 27 -19 40 -31 22 -10
-16 -12 -169 -3 -193 7 -19 31 -21 36 -4 3 9 24 6 80 -10 124 -36 188 -28 264
34 93 75 99 184 14 271 -17 17 -81 56 -142 88 -134 67 -158 88 -165 143 -7 54
13 85 70 107 83 31 165 -11 214 -111 15 -30 31 -53 37 -51 14 5 20 146 7 180
l-10 25 -138 1 c-119 0 -143 -2 -175 -19z"/>
<path d="M9167 7242 c-18 -4 -24 -22 -8 -22 12 0 101 -89 101 -100 0 -9 105
-229 196 -414 24 -49 44 -99 44 -112 0 -44 -67 -181 -101 -206 -24 -18 -32
-19 -84 -8 -86 18 -134 -2 -135 -56 0 -27 41 -71 75 -80 46 -12 113 15 164 66
56 56 77 97 171 330 39 96 76 186 82 200 19 43 35 81 84 200 31 74 60 128 82
152 20 21 33 40 29 44 -5 5 -138 9 -187 5 -10 -1 -3 -11 18 -27 17 -14 32 -33
32 -42 -1 -42 -144 -386 -163 -390 -18 -4 -187 335 -187 373 0 22 33 57 63 68
7 2 9 8 5 12 -7 7 -247 13 -281 7z"/>
</g>
</svg>
