<?xml version="1.0" standalone="no"?>
<!DOCTYPE svg PUBLIC "-//W3C//DTD SVG 20010904//EN"
 "http://www.w3.org/TR/2001/REC-SVG-20010904/DTD/svg10.dtd">
<svg version="1.0" xmlns="http://www.w3.org/2000/svg"
 width="300.000000pt" height="300.000000pt" viewBox="0 0 300.000000 300.000000"
 preserveAspectRatio="xMidYMid meet">
<metadata>
Created by potrace 1.10, written by Peter Selinger 2001-2011
</metadata>
<g transform="translate(0.000000,300.000000) scale(0.100000,-0.100000)"
fill="#ffffff" stroke="none">
<path d="M1791 1853 c-12 -24 1 -46 25 -41 13 2 19 12 19 28 0 30 -30 39 -44
13z"/>
<path d="M397 1797 c5 -60 2 -72 -90 -327 -116 -322 -114 -314 -85 -334 31
-22 504 -24 533 -2 27 19 19 48 -85 336 -91 249 -93 255 -87 322 l6 68 -99 0
-99 0 6 -63z m153 -31 c0 -29 7 -70 15 -89 8 -20 15 -41 15 -47 0 -6 -35 -10
-90 -10 -100 0 -100 -1 -75 70 8 23 15 62 15 86 l0 44 60 0 60 0 0 -54z m123
-360 c75 -206 81 -241 41 -256 -27 -11 -414 -14 -452 -4 -12 4 -25 16 -28 29
-4 18 49 184 127 393 8 21 13 22 127 22 l119 0 66 -184z"/>
<path d="M457 1513 c-12 -11 -8 -23 8 -23 8 0 15 7 15 15 0 16 -12 20 -23 8z"/>
<path d="M521 1476 c-9 -10 -9 -16 -1 -21 17 -10 37 12 24 25 -8 8 -15 6 -23
-4z"/>
<path d="M465 1450 c-10 -17 12 -37 25 -24 8 8 6 15 -4 23 -10 9 -16 9 -21 1z"/>
<path d="M533 1394 c-3 -8 2 -23 11 -32 16 -16 18 -16 31 1 7 11 11 25 8 33
-7 19 -42 18 -50 -2z"/>
<path d="M430 1371 c-21 -41 24 -75 55 -41 13 15 14 23 5 39 -14 26 -46 27
-60 2z"/>
<path d="M509 1291 c-20 -16 -22 -23 -14 -47 13 -38 56 -45 78 -13 17 23 13
47 -11 67 -21 16 -26 15 -53 -7z m41 -37 c0 -17 -22 -14 -28 4 -2 7 3 12 12
12 9 0 16 -7 16 -16z"/>
<path d="M790 1851 c0 -5 7 -11 15 -15 12 -4 15 -24 15 -86 0 -62 -3 -82 -15
-86 -35 -14 -10 -24 59 -24 65 0 78 3 104 25 57 47 47 142 -18 176 -36 20
-160 27 -160 10z m131 -30 c20 -16 24 -28 24 -76 0 -60 -17 -85 -57 -85 -16 0
-18 10 -18 90 0 98 7 107 51 71z"/>
<path d="M1380 1851 c0 -5 5 -11 12 -13 14 -5 12 -171 -3 -176 -5 -2 -9 -8 -9
-13 0 -5 25 -9 55 -9 30 0 55 5 55 10 0 6 -7 10 -15 10 -10 0 -15 11 -15 35 0
30 3 35 25 35 87 0 116 84 39 116 -37 16 -144 19 -144 5z m111 -21 c31 -17 22
-80 -12 -80 -16 0 -19 8 -19 45 0 49 1 50 31 35z"/>
<path d="M2123 1803 c-37 -41 -38 -43 -20 -43 9 0 12 -10 9 -30 -10 -71 28
-116 74 -85 30 19 31 36 3 32 -18 -2 -21 4 -23 40 -1 35 2 43 18 45 29 4 32
28 3 28 -20 0 -23 4 -19 25 6 34 -7 31 -45 -12z"/>
<path d="M1056 1769 c-36 -28 -37 -91 -2 -114 28 -19 50 -21 89 -12 42 11 35
34 -9 29 -24 -3 -39 0 -45 9 -18 28 -9 38 39 41 41 3 47 6 44 23 -8 46 -71 60
-116 24z m64 -14 c0 -9 -9 -15 -21 -15 -18 0 -19 2 -9 15 7 8 16 15 21 15 5 0
9 -7 9 -15z"/>
<path d="M1180 1784 c0 -4 6 -12 14 -18 7 -6 23 -37 36 -69 20 -51 26 -58 48
-55 20 2 29 15 50 66 14 34 31 62 39 62 7 0 13 5 13 10 0 6 -18 10 -40 10 -22
0 -40 -4 -40 -10 0 -5 5 -10 11 -10 12 0 7 -27 -12 -77 l-11 -28 -15 50 c-10
34 -12 50 -4 53 28 9 6 22 -39 22 -27 0 -50 -3 -50 -6z"/>
<path d="M1605 1765 c-27 -26 -33 -71 -12 -98 27 -38 117 -38 145 0 36 49 -8
123 -73 123 -25 0 -44 -8 -60 -25z m79 -11 c3 -9 6 -31 6 -50 0 -36 -22 -56
-42 -36 -11 11 -14 75 -3 91 9 16 32 13 39 -5z"/>
<path d="M1788 1783 c-19 -5 -25 -23 -8 -23 18 0 12 -91 -7 -106 -16 -12 -11
-13 35 -14 28 0 52 5 52 10 0 6 -4 10 -10 10 -6 0 -10 28 -10 65 0 69 -2 71
-52 58z"/>
<path d="M1903 1783 c-23 -4 -33 -23 -13 -23 6 0 10 -22 10 -50 0 -27 -4 -50
-10 -50 -5 0 -10 -4 -10 -10 0 -5 20 -10 45 -10 25 0 45 5 45 10 0 6 -4 10
-10 10 -15 0 -12 63 4 85 23 32 46 12 46 -40 0 -25 -4 -45 -10 -45 -5 0 -10
-4 -10 -10 0 -5 20 -10 45 -10 25 0 45 5 45 10 0 6 -4 10 -10 10 -5 0 -10 22
-10 49 0 74 -46 106 -92 64 -17 -15 -18 -15 -18 0 0 17 -5 18 -47 10z"/>
<path d="M1270 1385 c-11 -13 -11 -19 3 -32 21 -21 49 -9 45 19 -4 28 -30 35
-48 13z"/>
<path d="M2022 1391 c-21 -13 -10 -46 16 -49 27 -4 40 22 22 43 -14 17 -20 18
-38 6z"/>
<path d="M785 1380 c-3 -5 1 -10 9 -10 13 0 16 -14 16 -80 0 -67 3 -83 20
-100 25 -25 105 -27 138 -4 20 13 22 24 22 93 0 61 3 80 15 85 8 3 15 10 15
16 0 13 -97 13 -105 0 -3 -5 1 -10 9 -10 13 0 16 -14 16 -78 0 -80 -9 -102
-42 -102 -26 0 -38 32 -38 105 0 49 4 67 15 71 8 4 15 10 15 15 0 12 -97 11
-105 -1z"/>
<path d="M2133 1335 c-26 -27 -30 -36 -18 -42 8 -5 15 -29 17 -63 3 -52 5 -55
31 -58 28 -3 57 12 57 30 0 5 -9 6 -20 3 -18 -6 -20 -2 -20 45 0 40 3 51 14
47 7 -3 18 -1 23 4 13 13 26 -4 58 -80 29 -69 27 -91 -6 -91 -15 0 -19 -4 -15
-16 3 -9 6 -20 6 -25 0 -6 9 -5 21 1 11 6 40 53 64 103 24 51 52 100 61 110
17 16 15 17 -25 17 -37 0 -42 -2 -31 -15 9 -11 9 -22 0 -52 -19 -59 -22 -60
-36 -7 -7 28 -8 50 -3 52 5 2 9 8 9 13 0 5 -31 9 -70 9 -68 0 -70 1 -70 25 0
33 -8 31 -47 -10z"/>
<path d="M1048 1313 c-20 -5 -24 -23 -5 -23 8 0 11 -15 9 -50 -2 -27 -8 -50
-13 -50 -5 0 -9 -4 -9 -10 0 -5 23 -10 50 -10 28 0 50 5 50 10 0 6 -5 10 -11
10 -6 0 -9 19 -7 48 3 39 6 47 23 47 17 0 20 -8 23 -47 2 -29 -1 -48 -7 -48
-6 0 -11 -4 -11 -10 0 -5 20 -10 45 -10 25 0 45 5 45 10 0 6 -4 10 -10 10 -5
0 -10 24 -10 53 0 29 -5 58 -12 65 -17 17 -58 15 -80 -5 -17 -15 -18 -15 -18
0 0 17 -16 20 -52 10z"/>
<path d="M1254 1305 c-17 -13 -17 -14 -1 -15 23 0 24 -76 0 -102 -15 -17 -14
-18 35 -18 29 0 52 5 52 10 0 6 -4 10 -10 10 -6 0 -10 28 -10 65 0 61 -1 65
-23 65 -13 0 -32 -7 -43 -15z"/>
<path d="M1350 1310 c0 -5 4 -10 8 -10 5 0 21 -29 37 -65 22 -53 32 -65 50
-65 18 0 27 11 45 58 13 31 33 65 44 74 21 17 20 18 -21 18 -39 0 -59 -13 -33
-22 7 -2 4 -22 -7 -53 l-17 -50 -14 50 c-10 35 -11 50 -3 53 28 9 6 22 -39 22
-27 0 -50 -4 -50 -10z"/>
<path d="M1571 1303 c-11 -10 -24 -32 -27 -50 -12 -60 66 -105 127 -73 31 17
22 27 -23 26 -37 -1 -43 2 -46 22 -3 20 1 22 42 22 41 0 46 2 46 23 0 13 -5
28 -12 35 -18 18 -83 15 -107 -5z m69 -18 c0 -8 -9 -15 -20 -15 -20 0 -26 11
-13 23 12 13 33 7 33 -8z"/>
<path d="M1728 1313 c-20 -5 -24 -23 -5 -23 8 0 11 -15 9 -50 -2 -27 -8 -50
-13 -50 -5 0 -9 -4 -9 -10 0 -5 25 -10 55 -10 54 0 74 13 36 23 -13 3 -18 12
-16 30 4 35 13 47 36 47 10 0 19 4 19 9 0 5 3 16 6 25 9 24 -22 20 -46 -6
l-20 -22 0 22 c0 22 -13 26 -52 15z"/>
<path d="M1872 1308 c-21 -21 -13 -46 23 -74 19 -14 32 -30 29 -35 -9 -14 -41
-10 -48 6 -9 24 -26 17 -26 -10 0 -23 3 -25 50 -25 42 0 52 4 67 26 17 26 16
27 -9 48 -14 11 -34 26 -44 33 -19 11 -19 11 0 19 13 5 23 2 32 -11 13 -18 14
-17 14 8 0 25 -3 27 -38 27 -21 0 -43 -5 -50 -12z"/>
<path d="M2008 1313 c-20 -5 -24 -23 -5 -23 8 0 11 -15 9 -50 -2 -27 -8 -50
-13 -50 -5 0 -9 -4 -9 -10 0 -5 23 -10 50 -10 28 0 50 5 50 10 0 6 -4 10 -10
10 -6 0 -10 28 -10 65 0 69 -4 73 -62 58z"/>
</g>
</svg>
